<svg xmlns="http://www.w3.org/2000/svg" viewBox="136.0 136.0 1008.0 1008.0">
  <circle cx="640" cy="640" r="504" fill="#1a1a2e"/>
  <path d="M729.15,898.16c-3.72-6.5-6.59-12.91-6.13-20.22.86-13.63,9.64-25.86,21.66-28.71,7.46-1.77,14.79-1.02,21.33,2.95,5.37,3.26,10.38,7.17,15.28,11.13,12.09,9.74,25.43,16.85,40.78,19.71,37.24,6.94,76.44-13.24,87.42-54.62,2.17-8.17,3.2-16.54,3.2-24.98.04-98.43.04-196.87.02-295.3,0-19.9-3.3-39.07-12.61-56.96-15.02-28.85-38.6-46.56-70.31-52.62-24.27-4.64-46.94.82-67.84,14.09-22.45,14.26-35.17,35.25-42.04,60.27-3.17,11.55-4.32,23.43-4.32,35.41,0,60.11.19,120.23-.14,180.34-.07,13.65-1.67,27.3-2.97,40.92-1.72,18.16-5.25,36.01-10.45,53.51-8.95,30.14-22.81,57.77-42.88,82.02-30,36.24-67.92,59.81-114.07,69.74-16.59,3.57-33.48,4.58-50.27,3.13-54.62-4.72-100.24-27.56-135.71-69.74-23.16-27.55-37.55-59.52-46.13-94.22-4.38-17.72-7.01-35.75-7.53-54.04-.34-11.94-.88-23.88-.89-35.82-.07-90.35-.1-180.7.03-271.04.02-14.69,2.46-29.08,9.58-42.17,11.8-21.69,30.38-34.69,54.55-37.82,33.91-4.4,57.97,12.64,71.94,38.05,5.85,10.63,8.67,22.19,9.24,34.22.62,12.98,1.03,25.98.99,38.97-.23,78.74-.68,157.49-.9,236.23-.04,13.35.24,26.73,1.14,40.04,1.93,28.37,9.64,54.82,27.46,77.65,13.93,17.84,30.92,31.57,52.54,38.94,4.71,1.61,9.67,2.46,14.87,3.74-.98.71-1.83,1.49-2.82,2.02-11.84,6.38-24.47,8.83-37.92,8.9-21.99.12-41.38-7.03-58.65-19.99-18.58-13.95-31.59-32.31-39.62-54.09-5.3-14.37-7.97-29.33-9.92-44.5-1.98-15.4-1.97-30.83-1.97-46.28.01-91.23.01-182.45-.03-273.68,0-2.59-.2-5.29-.93-7.76-2.23-7.59-10.08-12.66-17.33-11.51-7.87,1.25-13.29,7.56-13.31,15.9-.07,34.28-.05,68.55-.05,102.83,0,44.3-.11,88.59.07,132.89.09,22.14.31,44.3,1.17,66.42,1.06,27.17,5.82,53.62,17.63,78.47,7.38,15.54,16.67,29.8,28.91,41.84,19.06,18.74,41.63,31.45,67.87,37.18,10.64,2.33,21.45,3.8,32.36,3.07,27.09-1.8,51.66-10.77,73.51-26.92,29.97-22.15,48.7-51.93,58.85-87.45,6.02-21.07,8.18-42.69,8.39-64.47.19-19.5-.72-39.01-.79-58.52-.16-43.42-.6-86.84.04-130.25.41-27.67,5.14-54.77,16.67-80.3,18.54-41.05,49.28-68.92,91.32-84.51,14.52-5.38,29.59-8.3,45.02-9.73,42.27-3.9,79.27,8.85,111.82,35.34,28.22,22.97,46.14,52.47,54.33,87.92,3.37,14.59,4.8,29.41,4.81,44.35.02,103.53-.07,207.06-.03,310.59,0,20.72-2.61,40.87-10.6,60.18-15.55,37.61-43.03,62.01-81.49,74.55-17.96,5.85-36.43,7.88-55.04,6.13-31.86-3-60.57-14.54-85.16-35.28-5.28-4.46-9.24-10.49-14-16.13Z" fill="#97ffbe"/>
</svg>